<svg width="60" height="60" viewBox="0 0 60 60" fill="none" xmlns="http://www.w3.org/2000/svg">
<g clip-path="url(#clip0_1044_424)">
<path d="M59.9904 30C59.9904 46.5648 46.56 59.9952 29.988 59.9976C13.428 59.9976 -0.00239871 46.5648 1.28623e-06 29.9976C-0.00479871 13.4304 13.4256 0 29.9928 0C46.56 0 59.9904 13.4328 59.9904 30Z" fill="#EAB300"/>
<path d="M13.7286 25.0795L9 29.7682L13.7286 34.457L18.4701 29.7682L13.7286 25.0795Z" fill="white"/>
<path d="M30 18.3776L38.1358 26.4303L42.8643 21.7415L30 9L17.1357 21.7415L21.8643 26.4303L30 18.3776Z" fill="white"/>
<path d="M46.2714 25.0795L41.5299 29.7682L46.2714 34.457L51 29.7682L46.2714 25.0795Z" fill="white"/>
<path d="M30 41.1851L21.8643 33.1323L17.1357 37.8211L30 50.5626L42.8643 37.8211L38.1358 33.1323L30 41.1851Z" fill="white"/>
<path d="M30.0001 34.483L34.7286 29.7942L30.0001 25.1055L25.2715 29.7942L30.0001 34.483Z" fill="white"/>
</g>
<defs>
<clipPath id="clip0_1044_424">
<rect width="59.9904" height="60" fill="white"/>
</clipPath>
</defs>
</svg>
