<svg width="60" height="60" viewBox="0 0 60 60" fill="none" xmlns="http://www.w3.org/2000/svg">
<g clip-path="url(#clip0)">
<path fill-rule="evenodd" clip-rule="evenodd" d="M60 30.0163C60 13.4472 46.5691 0 30 0C13.4309 0 0 13.4309 0 30C0 46.5691 13.4309 60.0163 30 60.0163C46.5691 60.0163 60 46.5854 60 30.0163ZM21.9104 14.4968H40.3262L42.3846 24.6974H19.852L21.9104 14.4968ZM24.7241 31.0918L20.1566 27.4378L13.4578 32.9187L24.7241 46.7732L29.1392 41.9013L24.7241 37.6384V31.0918ZM41.6232 27.4378L37.0557 31.0918V37.6384L32.6406 41.9013L37.0557 46.7732L48.3221 32.9187L41.6232 27.4378ZM36.4469 26.5243H25.1806L26.7032 30.1783V36.1159H34.4678V30.1783L36.4469 26.5243Z" fill="black"/>
</g>
<defs>
<clipPath id="clip0">
<rect width="60" height="60" fill="white"/>
</clipPath>
</defs>
</svg>
