<svg width="60" height="60" viewBox="0 0 60 60" fill="none" xmlns="http://www.w3.org/2000/svg">
<path fill-rule="evenodd" clip-rule="evenodd" d="M30 60C46.5685 60 60 46.5685 60 30C60 13.4315 46.5685 0 30 0C13.4315 0 0 13.4315 0 30C0 46.5685 13.4315 60 30 60ZM17.6756 16.0993H19.072H35.2449H35.568L35.8582 16.2412C38.3794 17.4738 42.9058 20.957 44.726 26.511H47.5251V29.3039H45.3683C45.4643 30.0089 45.5158 30.7402 45.5158 31.4976C45.5158 32.2162 45.4695 32.906 45.3829 33.5674H48.1646V36.3603H44.7383C42.9104 41.7749 38.3005 44.7564 35.721 45.6918L35.4903 45.7754H35.2449H19.072H17.6756V44.379V36.3603H13.8489V33.5674H17.6756V29.3039H13.6328V26.511H17.6756V17.4958V16.0993ZM42.7229 31.4976C42.7229 32.2229 42.6646 32.9126 42.5573 33.5674H20.4684V29.3039H42.5411C42.6588 30.0044 42.7229 30.7359 42.7229 31.4976ZM20.4684 42.9826V36.3603H41.7393C40.1397 40.0525 36.9555 42.2005 34.9887 42.9826H20.4684ZM41.7462 26.511H20.4684V18.8922H34.9094C36.9322 19.9681 40.1436 22.5744 41.7462 26.511Z" fill="#F4BD1D"/>
</svg>
