<svg width="60" height="60" viewBox="0 0 60 60" fill="none" xmlns="http://www.w3.org/2000/svg">
<path fill-rule="evenodd" clip-rule="evenodd" d="M30 60C46.5685 60 60 46.5685 60 30C60 13.4315 46.5685 0 30 0C13.4315 0 0 13.4315 0 30C0 46.5685 13.4315 60 30 60ZM39.5942 25.2412L30.2294 19.8935L20.8904 25.2839V36.0222L30.2552 41.3614L39.5942 35.9794V25.2412ZM30.2209 12.0049L30.2294 12H30.2123L30.2209 12.0049ZM26.7928 13.9819L30.2209 12.0049L33.6489 13.9648L43.0137 19.3126L46.4503 21.2774V25.2241V35.9624V39.9091L43.0137 41.8825L33.6747 47.2729L30.238 49.2548L26.8014 47.29L17.4366 41.9423L14 39.9774V36.0307V25.301V21.3543L17.4366 19.3724L26.7928 13.9819Z" fill="#375BD2"/>
</svg>
