<svg width="60" height="60" viewBox="0 0 60 60" fill="none" xmlns="http://www.w3.org/2000/svg">
<path d="M30 60C46.5685 60 60 46.5685 60 30C60 13.4315 46.5685 0 30 0C13.4315 0 0 13.4315 0 30C0 46.5685 13.4315 60 30 60Z" fill="#8247E5"/>
<path d="M39.9298 23.5814C39.2103 23.1628 38.2748 23.1628 37.4834 23.5814L31.8708 26.7907L28.0571 28.8837L22.4446 32.093C21.725 32.5116 20.7896 32.5116 19.9981 32.093L15.5368 29.5814C14.8173 29.1628 14.3136 28.3954 14.3136 27.5581V22.6046C14.3136 21.7675 14.7453 21 15.5368 20.5814L19.9262 18.1395C20.6457 17.7209 21.5811 17.7209 22.3727 18.1395L26.7619 20.5814C27.4815 21 27.9852 21.7675 27.9852 22.6046V25.8139L31.7988 23.6511V20.4418C31.7988 19.6046 31.3671 18.8372 30.5756 18.4186L22.4446 13.8139C21.725 13.3954 20.7896 13.3954 19.9981 13.8139L11.7232 18.4186C10.9317 18.8372 10.4999 19.6046 10.4999 20.4418V29.7209C10.4999 30.5581 10.9317 31.3256 11.7232 31.7442L19.9981 36.3488C20.7177 36.7675 21.6531 36.7675 22.4446 36.3488L28.0571 33.2093L31.8708 31.0465L37.4834 27.907C38.2029 27.4884 39.1383 27.4884 39.9298 27.907L44.3191 30.3488C45.0387 30.7675 45.5424 31.5349 45.5424 32.3721V37.3256C45.5424 38.1628 45.1106 38.9302 44.3191 39.3488L39.9298 41.8605C39.2103 42.2791 38.2748 42.2791 37.4834 41.8605L33.094 39.4186C32.3745 39 31.8708 38.2325 31.8708 37.3953V34.1861L28.0571 36.3488V39.5581C28.0571 40.3953 28.4889 41.1628 29.2804 41.5814L37.5553 46.1861C38.2748 46.6046 39.2103 46.6046 40.0018 46.1861L48.2767 41.5814C48.9963 41.1628 49.4999 40.3953 49.4999 39.5581V30.2791C49.4999 29.4418 49.0682 28.6744 48.2767 28.2558L39.9298 23.5814Z" fill="white"/>
</svg>
