<svg width="60" height="60" viewBox="0 0 60 60" fill="none" xmlns="http://www.w3.org/2000/svg">
<g clip-path="url(#clip0_10048_404)">
<path d="M59.4998 30C59.4998 46.2924 46.2922 59.5 29.9999 59.5C13.7075 59.5 0.5 46.2924 0.5 30C0.5 13.7076 13.7075 0.5 29.9999 0.5C46.2922 0.5 59.4998 13.7076 59.4998 30Z" fill="#F6F6F6" stroke="#E7EBEE"/>
<path d="M18.6474 24.0277L13.0129 21.1587C12.5708 22.0241 12.1992 22.9318 11.8982 23.8584L17.9137 25.8055C18.1112 25.1941 18.3558 24.5968 18.6474 24.0277Z" fill="black"/>
<path d="M23.4306 18.9725L26.5488 24.3483C27.005 24.085 27.4942 23.8827 27.9974 23.7463L26.3842 17.745C26.7934 17.6368 27.212 17.5427 27.6353 17.4769L26.6476 11.231C25.6881 11.3815 24.7334 11.6119 23.8115 11.9129L25.7399 17.8296C25.1237 18.0319 24.5264 18.2811 23.9526 18.5727L21.1166 13.037C20.2559 13.4791 19.4187 13.9918 18.6379 14.5656L22.3676 19.6733C22.7063 19.4193 23.0637 19.1889 23.4306 18.9725Z" fill="black"/>
<path d="M40.1788 23.4262L34.803 26.5492C35.0664 27.0054 35.2733 27.4945 35.4097 27.9978L41.4111 26.3799C41.5239 26.7891 41.6133 27.2076 41.6791 27.6262L47.9251 26.6338C47.7746 25.6744 47.5441 24.7196 47.2384 23.7978L41.3264 25.7355C41.1242 25.1194 40.8749 24.5221 40.5833 23.9483L46.119 21.1075C45.6769 20.2468 45.1643 19.4096 44.5905 18.6289L39.4874 22.3586C39.732 22.7019 39.9624 23.0594 40.1788 23.4262Z" fill="black"/>
<path d="M37.9873 13.0082C37.1219 12.5661 36.2142 12.1946 35.2877 11.8936L33.3452 17.909C33.9519 18.1066 34.5492 18.3511 35.123 18.6427L37.9873 13.0082Z" fill="black"/>
<path d="M35.7391 18.8637L32.5833 24.343C33.0395 24.6064 33.4628 24.9309 33.8343 25.3025L42.6858 16.4181C41.9992 15.7314 41.2514 15.0964 40.4706 14.5273L36.8209 19.5645C36.4728 19.3106 36.1154 19.0754 35.7391 18.8637Z" fill="black"/>
<path d="M18.8637 23.4075L24.3383 26.5681C24.6017 26.1118 24.9262 25.6885 25.2978 25.3123L16.4181 16.4561C15.7314 17.1427 15.0964 17.8905 14.5273 18.6713L19.5598 22.3257C19.3153 22.6738 19.0801 23.0359 18.8637 23.4075Z" fill="black"/>
<path d="M31.4919 17.3682L32.4466 11.2211C31.5013 11.0753 30.5371 11 29.5729 11H29.5588V23.5389H29.5729C30.0997 23.5389 30.6265 23.6047 31.1297 23.7411L32.7523 17.6316C32.3385 17.5187 31.9199 17.4341 31.4919 17.3682Z" fill="black"/>
<path d="M23.7411 28.0209L17.6316 26.3936C17.5234 26.8074 17.4341 27.2307 17.3682 27.654L11.2211 26.6946C11.0753 27.6399 11 28.6135 11 29.5777H23.5389C23.5389 29.0462 23.6094 28.5241 23.7411 28.0209Z" fill="black"/>
<path d="M40.5081 35.1274L46.1426 37.9964C46.5847 37.131 46.9562 36.2233 47.2572 35.2968L41.2418 33.3496C41.0442 33.961 40.7997 34.5583 40.5081 35.1274Z" fill="black"/>
<path d="M35.7202 40.179L32.6019 34.8032C32.1457 35.0666 31.6566 35.2688 31.1533 35.4052L32.7665 41.4066C32.3574 41.5148 31.9388 41.6088 31.5155 41.6747L32.5079 47.9206C33.4673 47.7701 34.4221 47.5396 35.3439 47.2386L33.4156 41.3219C34.0317 41.1197 34.629 40.8704 35.2028 40.5788L38.0389 46.1146C38.8996 45.6725 39.7368 45.1598 40.5175 44.586L36.7925 39.4783C36.4492 39.7369 36.0917 39.9674 35.7202 40.179Z" fill="black"/>
<path d="M18.9767 35.7298L24.3526 32.6068C24.0892 32.1506 23.8822 31.6615 23.7458 31.1582L17.7445 32.7761C17.6316 32.3669 17.5422 31.9484 17.4764 31.5298L11.2305 32.5221C11.381 33.4816 11.6114 34.4364 11.9171 35.3582L17.8291 33.4252C18.0314 34.0366 18.2807 34.6386 18.5723 35.2124L13.0365 38.0532C13.4786 38.9139 13.9913 39.7511 14.5651 40.5318L19.6681 36.8021C19.4235 36.4541 19.1931 36.0966 18.9767 35.7298Z" fill="black"/>
<path d="M21.1682 46.1477C22.0336 46.5898 22.9413 46.9613 23.8679 47.2624L25.8103 41.2469C25.2036 41.0494 24.6063 40.8048 24.0325 40.5132L21.1682 46.1477Z" fill="black"/>
<path d="M23.4116 40.2918L26.5674 34.8125C26.1112 34.5491 25.6879 34.2246 25.3164 33.853L16.4648 42.7375C17.1515 43.4242 17.8993 44.0591 18.6801 44.6282L22.3298 39.591C22.6778 39.8403 23.04 40.0754 23.4116 40.2918Z" fill="black"/>
<path d="M40.2868 35.7485L34.8122 32.5879C34.5489 33.0441 34.2243 33.4674 33.8528 33.8437L42.7325 42.6999C43.4192 42.0132 44.0541 41.2654 44.6232 40.4847L39.5908 36.8302C39.84 36.4775 40.0752 36.12 40.2868 35.7485Z" fill="black"/>
<path d="M28.0211 35.4141L26.3984 41.5236C26.8123 41.6318 27.2356 41.7211 27.6589 41.787L26.7041 47.9341C27.6495 48.0799 28.6137 48.1552 29.5778 48.1552H29.5919V35.6163H29.5778C29.0511 35.6163 28.5243 35.5458 28.0211 35.4141Z" fill="black"/>
<path d="M35.6165 29.5776C35.6165 30.1091 35.5507 30.6312 35.4143 31.1344L41.5238 32.7617C41.632 32.3479 41.7214 31.9246 41.7872 31.5013L47.9344 32.4607C48.0802 31.5154 48.1554 30.5418 48.1554 29.5776H35.6165Z" fill="black"/>
</g>
<defs>
<clipPath id="clip0_10048_404">
<rect width="60" height="60" rx="30" fill="white"/>
</clipPath>
</defs>
</svg>
