<svg width="60" height="60" viewBox="0 0 60 60" fill="none" xmlns="http://www.w3.org/2000/svg">
<g clip-path="url(#clip0)">
<path fill-rule="evenodd" clip-rule="evenodd" d="M13.3329 5.05591C18.2664 1.75947 24.0666 0 30 0C37.9565 0 45.5871 3.16071 51.2132 8.7868C56.8393 14.4129 60 22.0435 60 30C60 35.9334 58.2405 41.7336 54.9441 46.6671C51.6477 51.6006 46.9623 55.4458 41.4805 57.7164C35.9987 59.987 29.9667 60.5811 24.1473 59.4236C18.3279 58.266 12.9824 55.4088 8.78681 51.2132C4.59124 47.0176 1.73401 41.6721 0.576455 35.8527C-0.581102 30.0333 0.0129985 24.0013 2.28363 18.5195C4.55426 13.0377 8.39943 8.35235 13.3329 5.05591ZM33.332 27.3249L38.7475 19.2881C39.266 18.4527 40.159 17.963 41.1096 17.963C42.6363 17.963 43.875 19.2016 43.9038 20.7283V41.1229C43.9038 42.6496 42.6651 43.8883 41.1384 43.8883H40.5623C39.7557 43.8883 38.978 43.5426 38.4595 42.9089L22.3282 23.6089C22.213 23.4649 21.9537 23.5513 21.9537 23.753V38.2135C21.9537 38.4151 22.1553 38.5016 22.2994 38.3863L27.6285 33.7774C28.147 33.3165 28.8671 33.979 28.4926 34.5264L23.0771 42.5632C22.5586 43.3986 21.6656 43.8883 20.7151 43.8883C19.1883 43.8883 17.9497 42.6496 17.9497 41.1229V20.7283C17.9497 19.2016 19.1883 17.963 20.6863 17.963H21.2624C22.0977 17.963 22.8467 18.3087 23.3652 18.9424L39.4965 38.2423C39.6117 38.3863 39.871 38.2999 39.871 38.0983V23.6089C39.871 23.4073 39.6693 23.3209 39.5253 23.4361L34.1962 28.0738C33.6777 28.5347 32.9575 27.8722 33.332 27.3249Z" fill="black"/>
</g>
<defs>
<clipPath id="clip0">
<rect width="60" height="60" fill="white"/>
</clipPath>
</defs>
</svg>
