<svg width="60" height="60" viewBox="0 0 60 60" fill="none" xmlns="http://www.w3.org/2000/svg">
<circle cx="30" cy="30" r="30" fill="#040709"/>
<circle cx="30" cy="30" r="29.5" stroke="#223349" stroke-opacity="0.8"/>
<path d="M25.4135 20.2058C25.4135 21.5844 25.4191 22.9644 25.4122 24.343C25.408 25.1873 25.1907 25.4074 24.3491 25.4102C21.5905 25.4157 18.8319 25.4157 16.0733 25.4102C15.229 25.4088 15.0075 25.1887 15.0061 24.3472C15.0006 21.5885 14.9992 18.8299 15.0047 16.0713C15.0061 15.2284 15.2276 15.0055 16.0692 15.0042C18.8278 14.9986 21.5864 14.9986 24.345 15.0042C25.1893 15.0055 25.408 15.2256 25.4122 16.0672C25.4191 17.4472 25.4135 18.8258 25.4135 20.2058Z" fill="white"/>
<path d="M35.7878 20.1893C35.7878 18.7872 35.7836 17.3836 35.7892 15.9815C35.7919 15.2174 35.9996 15.007 36.7788 15.0057C39.561 14.9987 42.3431 15.0001 45.1253 15.0057C45.9474 15.007 46.162 15.2202 46.1634 16.0175C46.1675 18.7996 46.1675 21.5818 46.1634 24.3639C46.162 25.2068 45.9585 25.4089 45.092 25.4103C42.3556 25.4158 39.6191 25.4158 36.8826 25.4103C35.9691 25.4089 35.7892 25.2248 35.7864 24.3279C35.785 22.9479 35.7878 21.5679 35.7878 20.1893Z" fill="white"/>
<path d="M20.2231 35.7857C21.6252 35.7857 23.0288 35.7815 24.4309 35.7871C25.1963 35.7898 25.4095 35.9974 25.4109 36.774C25.4178 39.5796 25.4178 42.3839 25.4095 45.1896C25.4067 45.9467 25.1756 46.1613 24.4032 46.1626C21.5975 46.1668 18.7933 46.1682 15.9876 46.1626C15.2318 46.1613 15.009 45.9398 15.0062 45.1661C14.9979 42.3839 14.9979 39.6018 15.0062 36.8196C15.009 35.9712 15.2083 35.7912 16.0845 35.7884C17.4645 35.7829 18.8431 35.7857 20.2231 35.7857Z" fill="white"/>
<path d="M30.5627 35.7858C29.1841 35.7858 27.8041 35.79 26.4254 35.7844C25.6226 35.7817 25.4192 35.5976 25.4178 34.8321C25.4109 32.0057 25.4109 29.1779 25.4178 26.3515C25.4192 25.5763 25.5797 25.4172 26.3562 25.4158C29.1827 25.4102 32.0105 25.4102 34.8369 25.4158C35.5844 25.4172 35.7851 25.6151 35.7864 26.3501C35.792 29.1765 35.792 32.0043 35.7864 34.8308C35.7851 35.5547 35.5622 35.7789 34.8383 35.783C33.4126 35.7927 31.987 35.7858 30.5627 35.7858Z" fill="white"/>
<path d="M35.7878 40.9558C35.7878 39.5758 35.785 38.1972 35.7892 36.8172C35.7919 35.9479 35.9386 35.7887 36.7747 35.7874C39.579 35.7818 42.3846 35.7818 45.1889 35.7874C45.9571 35.7887 46.1633 35.9977 46.1647 36.777C46.1703 39.5813 46.1703 42.387 46.1647 45.1913C46.1633 45.9442 45.9391 46.1616 45.1695 46.1616C42.3874 46.1657 39.6066 46.1657 36.8245 46.1616C35.9691 46.1602 35.7919 45.9761 35.7905 45.093C35.785 43.7158 35.7878 42.3358 35.7878 40.9558Z" fill="white"/>
</svg>
