<svg width="61" height="61" viewBox="0 0 61 61" fill="none" xmlns="http://www.w3.org/2000/svg">
<g clip-path="url(#clip0)">
<circle cx="30.4846" cy="30.281" r="30" fill="#E83821"/>
<mask id="mask0" mask-type="alpha" maskUnits="userSpaceOnUse" x="0" y="0" width="61" height="61">
<circle cx="30.4846" cy="30.281" r="30" fill="#E83821"/>
</mask>
<g mask="url(#mask0)">
</g>
<ellipse cx="31.0022" cy="35.1387" rx="15.7461" ry="6.68018" fill="black"/>
<mask id="mask1" mask-type="alpha" maskUnits="userSpaceOnUse" x="10" y="11" width="40" height="43">
<path fill-rule="evenodd" clip-rule="evenodd" d="M16.4277 12.3809C18.5337 13.3993 21.6927 17.0489 23.009 18.7464C24.062 18.322 27.0104 17.4732 30.38 17.4732C33.7496 17.4732 36.5225 18.322 37.4877 18.7464C37.4877 18.4918 40.1202 15.0286 42.2262 13.399C44.8587 11.3621 47.2279 11.1081 48.5442 11.3624C49.8605 11.6166 49.5972 16.7092 49.334 18.7464C49.125 20.3634 47.9299 25.4514 46.9647 28.1674C48.5442 30.9679 50.2115 36.9238 49.334 40.7434C48.4564 44.5629 40.3867 53.056 30.38 53.056C20.3732 53.056 11.426 44.2084 10.6362 39.8799C9.90851 35.8913 11.9525 30.2041 13.532 28.1674C13.3565 27.9128 12.5316 26.5884 11.6892 22.3108C10.8468 18.0332 11.1627 13.399 11.9525 11.3624C12.5667 11.2775 14.3217 11.3624 16.4277 12.3809ZM22.0765 32.198C23.268 32.6506 24.8146 33.6426 26.0761 34.6673C27.1124 35.5089 26.5709 36.8449 25.2401 36.7395C24.5292 36.6832 23.8423 36.5729 23.3392 36.3946C23.0197 36.2813 22.6484 36.1565 22.2568 36.025C20.7141 35.5067 18.8561 34.8824 18.6043 34.4361C18.4326 34.1317 18.3395 32.9967 18.4435 32.224C18.4963 31.8309 18.8018 31.5299 19.198 31.5116C19.8475 31.4816 20.7733 31.7029 22.0765 32.198ZM35.3493 34.6672C36.6108 33.6426 38.1574 32.6505 39.3489 32.1979C40.6522 31.7029 41.578 31.4816 42.2275 31.5116C42.6237 31.5299 42.9291 31.8309 42.982 32.224C43.0859 32.9967 42.9928 34.1317 42.8211 34.4361C42.5694 34.8823 40.7113 35.5066 39.1686 36.0249C38.777 36.1565 38.4058 36.2813 38.0863 36.3945C37.5831 36.5729 36.8962 36.6831 36.1853 36.7394C34.8545 36.8448 34.3131 35.5089 35.3493 34.6672Z" fill="#FDC036"/>
</mask>
<g mask="url(#mask1)">
<path fill-rule="evenodd" clip-rule="evenodd" d="M16.4277 12.3809C18.5337 13.3993 21.6927 17.0489 23.009 18.7464C24.062 18.322 27.0104 17.4732 30.38 17.4732C33.7496 17.4732 36.5225 18.322 37.4877 18.7464C37.4877 18.4918 40.1202 15.0286 42.2262 13.399C44.8587 11.3621 47.2279 11.1081 48.5442 11.3624C49.8605 11.6166 49.5972 16.7092 49.334 18.7464C49.125 20.3634 47.9299 25.4514 46.9647 28.1674C48.5442 30.9679 50.2115 36.9238 49.334 40.7434C48.4564 44.5629 40.3867 53.056 30.38 53.056C20.3732 53.056 11.426 44.2084 10.6362 39.8799C9.90851 35.8913 11.9525 30.2041 13.532 28.1674C13.3565 27.9128 12.5316 26.5884 11.6892 22.3108C10.8468 18.0332 11.1627 13.399 11.9525 11.3624C12.5667 11.2775 14.3217 11.3624 16.4277 12.3809ZM22.0765 32.198C23.268 32.6506 24.8146 33.6426 26.0761 34.6673C27.1124 35.5089 26.5709 36.8449 25.2401 36.7395C24.5292 36.6832 23.8423 36.5729 23.3392 36.3946C23.0197 36.2813 22.6484 36.1565 22.2568 36.025C20.7141 35.5067 18.8561 34.8824 18.6043 34.4361C18.4326 34.1317 18.3395 32.9967 18.4435 32.224C18.4963 31.8309 18.8018 31.5299 19.198 31.5116C19.8475 31.4816 20.7733 31.7029 22.0765 32.198ZM35.3493 34.6672C36.6108 33.6426 38.1574 32.6505 39.3489 32.1979C40.6522 31.7029 41.578 31.4816 42.2275 31.5116C42.6237 31.5299 42.9291 31.8309 42.982 32.224C43.0859 32.9967 42.9928 34.1317 42.8211 34.4361C42.5694 34.8823 40.7113 35.5066 39.1686 36.0249C38.777 36.1565 38.4058 36.2813 38.0863 36.3945C37.5831 36.5729 36.8962 36.6831 36.1853 36.7394C34.8545 36.8448 34.3131 35.5089 35.3493 34.6672Z" fill="#FDC036"/>
<path fill-rule="evenodd" clip-rule="evenodd" d="M33.5224 52.8404C32.5235 53.2625 31.4254 53.4959 30.2729 53.4959C29.0438 53.4959 27.8768 53.2305 26.8258 52.7539C25.6071 57.2358 21.509 60.5315 16.6411 60.5315C10.8124 60.5315 6.0874 55.8065 6.0874 49.9778C6.0874 44.1492 10.8124 39.4241 16.6411 39.4241C18.9387 39.4241 21.0648 40.1584 22.7976 41.405C24.1691 38.6662 27.0014 36.7859 30.2729 36.7859C33.6713 36.7859 36.5957 38.8148 37.9011 41.7274C39.8159 40.2816 42.1999 39.4242 44.7841 39.4242C51.0985 39.4242 56.2173 44.543 56.2173 50.8573C56.2173 57.1717 51.0985 62.2905 44.7841 62.2905C39.1462 62.2905 34.4613 58.2096 33.5224 52.8404Z" fill="white"/>
<path d="M22.7973 28.2422C22.7973 29.2136 21.5039 29.7498 19.9519 29.7498C18.3999 29.7498 18.3999 28.9623 18.3999 27.9909C18.3999 27.0194 19.1835 26.2319 20.4693 26.2319C21.2453 26.2319 22.7973 27.2707 22.7973 28.2422Z" fill="white" fill-opacity="0.71"/>
<path d="M38.6278 28.2422C38.6278 29.2136 39.9211 29.7498 41.4731 29.7498C43.0251 29.7498 43.0251 28.9623 43.0251 27.9909C43.0251 27.0194 42.2415 26.2319 40.9558 26.2319C40.1798 26.2319 38.6278 27.2707 38.6278 28.2422Z" fill="white" fill-opacity="0.71"/>
</g>
<path d="M27.2817 41.2511C27.2817 40.3502 28.0121 39.6199 28.9129 39.6199H32.2126C33.1135 39.6199 33.8438 40.3502 33.8438 41.2511V42.0807C33.8438 43.8927 32.3749 45.3617 30.5628 45.3617V45.3617C28.7507 45.3617 27.2817 43.8927 27.2817 42.0807V41.2511Z" fill="#272727"/>
</g>
<defs>
<clipPath id="clip0">
<rect width="60" height="60" fill="white" transform="translate(0.484619 0.281006)"/>
</clipPath>
</defs>
</svg>
