<svg width="60" height="60" viewBox="0 0 60 60" fill="none" xmlns="http://www.w3.org/2000/svg">
<path fill-rule="evenodd" clip-rule="evenodd" d="M30 60C46.5685 60 60 46.5685 60 30C60 13.4315 46.5685 0 30 0C13.4315 0 0 13.4315 0 30C0 46.5685 13.4315 60 30 60ZM16.6025 28.6731C15.2826 25.1574 15.1782 20.0276 17.1885 15.7964C19.1788 11.6074 23.2643 8.24401 30.5012 8.244C37.9899 8.24399 42.2923 12.2427 44.2114 16.9961C43.6243 17.4027 43.2397 18.0812 43.2397 18.8494C43.2397 20.0209 44.1338 20.9835 45.2768 21.0921C45.6926 24.3005 45.1725 27.4012 43.9691 29.5306C43.2289 30.6258 42.4052 31.6777 41.5727 32.7285L41.3618 32.9945L41.3618 32.9946C40.5982 33.9575 39.8315 34.9242 39.1472 35.8998C37.6552 38.0271 36.4765 40.3016 36.5224 42.9161C36.5507 44.5286 36.5637 45.5123 36.5675 46.0829C36.5341 46.1705 36.518 46.2663 36.5232 46.3659C36.5317 46.5263 36.5421 46.7121 36.5521 46.8148L36.5521 46.8149C36.5541 46.8347 36.5588 46.8827 36.5685 46.9305C36.5712 46.9441 36.5771 46.9716 36.5875 47.0049L36.5879 47.0062C36.5922 47.0208 36.6245 47.1288 36.7101 47.2354C36.7541 47.2901 36.8911 47.4443 37.1372 47.4852C37.4263 47.5333 37.638 47.3933 37.7378 47.2948C37.8264 47.2075 37.8687 47.1181 37.8836 47.0851C37.9027 47.0428 37.9136 47.0071 37.9193 46.987C37.9373 46.9232 37.9427 46.8671 37.9439 46.855L37.9439 46.8549L37.9441 46.8536L37.9462 46.8294C37.9472 46.8163 37.9479 46.8041 37.9485 46.7935C37.9503 46.7591 37.9515 46.7179 37.9523 46.6722C37.9587 46.3154 37.9496 45.278 37.9077 42.8918C37.8697 40.7228 38.8415 38.7487 40.2816 36.6955C40.9411 35.7551 41.6825 34.8201 42.4514 33.8505L42.4514 33.8504L42.6587 33.5889C43.4958 32.5323 44.3556 31.4355 45.1327 30.2832C45.1425 30.2687 45.1517 30.2538 45.1604 30.2386C46.57 27.7622 47.1103 24.2818 46.6346 20.7918C47.2994 20.4001 47.7455 19.6769 47.7455 18.8494C47.7455 17.6224 46.7645 16.6244 45.544 16.5971C43.4592 11.3215 38.674 6.85845 30.5012 6.85846C22.7367 6.85847 18.1599 10.5232 15.9371 15.2018C13.7431 19.8196 13.8652 25.3704 15.3248 29.2113C15.3366 29.2424 15.3506 29.2726 15.3668 29.3017L15.9919 30.4269C15.644 30.8234 15.4331 31.343 15.4331 31.912C15.4331 33.1562 16.4418 34.1648 17.686 34.1648C17.9424 34.1648 18.1888 34.122 18.4184 34.0431L19.7796 35.8506L19.7952 35.8726C19.8093 35.8923 19.8303 35.9221 19.8579 35.9614C19.9131 36.0399 19.9942 36.1564 20.0969 36.3063C20.3023 36.6062 20.5937 37.0398 20.9356 37.5714C21.6037 38.6103 22.4604 40.0176 23.2446 41.5306C23.3543 42.5374 23.4114 43.8388 23.4408 44.9181C23.456 45.4772 23.4636 45.971 23.4674 46.325C23.4693 46.502 23.4703 46.6438 23.4707 46.7412L23.4711 46.8527L23.4712 46.8904C23.4712 47.273 23.7814 47.5832 24.164 47.5832C24.5466 47.5832 24.8567 47.2729 24.8567 46.8903L24.8567 46.8495L24.8562 46.7345C24.8558 46.6347 24.8548 46.4901 24.8529 46.3102C24.849 45.9505 24.8413 45.4488 24.8258 44.8804C24.7951 43.75 24.7332 42.3332 24.6068 41.2462C24.5972 41.1636 24.5728 41.0834 24.5348 41.0095C23.708 39.4012 22.8002 37.9094 22.1009 36.822C21.7508 36.2775 21.4519 35.8327 21.24 35.5234C21.1341 35.3687 21.0498 35.2477 20.9917 35.165C20.9627 35.1237 20.9402 35.0919 20.9248 35.0702L20.9071 35.0453L20.9023 35.0387L20.901 35.0368L20.9004 35.036L20.8911 35.0233L19.5266 33.2114C19.7863 32.8442 19.9389 32.3959 19.9389 31.912C19.9389 30.6677 18.9302 29.6591 17.686 29.6591C17.5127 29.6591 17.3439 29.6787 17.1818 29.7157L16.6025 28.6731ZM36.5637 46.7359C36.5636 46.7357 36.5639 46.7301 36.5649 46.7206L36.564 46.7336C36.5639 46.7353 36.5638 46.736 36.5637 46.7359ZM32.2765 11.5958C32.0519 10.5884 31.1527 9.83528 30.0775 9.83528C28.9817 9.83528 28.0687 10.6176 27.8664 11.6542C23.599 12.636 19.204 16.4619 19.2463 23.8941C19.2769 29.292 22.8938 33.0114 26.9159 33.0114C28.2725 33.0114 29.2165 31.9202 29.5593 30.746C29.9119 29.538 29.7161 28.0357 28.6398 26.8825C28.5204 26.7546 28.4023 26.6299 28.2863 26.5075C27.0887 25.2435 26.1103 24.2109 26.1103 22.1108C26.1103 20.1656 27.6886 17.9903 30.584 18.1204C33.6006 18.256 34.8857 20.2376 34.8857 21.5489C34.8857 23.1958 34.3472 25.4673 32.3139 26.5039C31.973 26.6777 31.8376 27.0949 32.0113 27.4357C32.1851 27.7766 32.6023 27.9121 32.9432 27.7383C35.686 26.34 36.2713 23.3671 36.2713 21.5489C36.2713 19.3952 34.2974 16.9004 30.6462 16.7363C26.8737 16.5667 24.7248 19.4672 24.7248 22.1108C24.7248 24.7835 26.0729 26.1965 27.2719 27.4531C27.3922 27.5792 27.5111 27.7038 27.6269 27.8279C28.33 28.5812 28.4619 29.5606 28.2293 30.3577C27.9867 31.1886 27.4324 31.6259 26.9159 31.6259C23.8207 31.6259 20.6591 28.6979 20.6318 23.8862C20.5939 17.219 24.4122 13.933 28.0344 13.0385C28.3928 13.8078 29.1729 14.341 30.0775 14.341C31.0045 14.341 31.8008 13.7811 32.1465 12.9811C34.0319 13.3444 36.04 14.2151 37.6204 15.7111C39.2958 17.297 40.5222 19.6137 40.5985 22.8763C40.6823 26.4572 39.2849 29.286 37.5511 31.4936C37.2096 31.2852 36.8083 31.165 36.3789 31.165C35.1346 31.165 34.126 32.1737 34.126 33.4179C34.126 33.8766 34.2631 34.3032 34.4985 34.6591C34.0714 35.0361 33.6665 35.3769 33.2984 35.6869L33.2981 35.6872L33.2803 35.7021C32.8471 36.0669 32.4515 36.4 32.1505 36.6871C31.2291 37.5655 30.6778 38.7212 30.3557 39.7671C30.0328 40.8155 29.9223 41.8114 29.9223 42.4328V54.7477C29.9223 55.1304 30.2325 55.4405 30.6151 55.4405C30.9977 55.4405 31.3079 55.1304 31.3079 54.7477V42.4328C31.3079 41.946 31.3987 41.0877 31.6799 40.1749C31.9618 39.2596 32.4172 38.3472 33.1066 37.6898C33.3698 37.4388 33.728 37.1364 34.1727 36.762L34.1951 36.7432L34.1953 36.743L34.1955 36.7428L34.1956 36.7427C34.6125 36.3918 35.0924 35.9877 35.6011 35.5329C35.8435 35.6221 36.1055 35.6708 36.3789 35.6708C37.6231 35.6708 38.6317 34.6621 38.6317 33.4179C38.6317 33.1174 38.5729 32.8307 38.4661 32.5685C40.4095 30.1645 42.08 26.962 41.9837 22.8438C41.8988 19.2135 40.5176 16.5458 38.5728 14.7049C36.7304 12.9608 34.4111 11.9844 32.2765 11.5958ZM30.9449 12.0882C30.9449 12.5672 30.5566 12.9555 30.0775 12.9555C29.5985 12.9555 29.2102 12.5672 29.2102 12.0882C29.2102 11.6091 29.5985 11.2208 30.0775 11.2208C30.5566 11.2208 30.9449 11.6091 30.9449 12.0882ZM17.686 32.7793C18.165 32.7793 18.5533 32.391 18.5533 31.912C18.5533 31.433 18.165 31.0446 17.686 31.0446C17.207 31.0446 16.8187 31.433 16.8187 31.912C16.8187 32.391 17.207 32.7793 17.686 32.7793ZM37.2462 33.4179C37.2462 33.8969 36.8579 34.2852 36.3789 34.2852C35.8998 34.2852 35.5115 33.8969 35.5115 33.4179C35.5115 32.9389 35.8998 32.5506 36.3789 32.5506C36.8579 32.5506 37.2462 32.9389 37.2462 33.4179ZM45.4926 19.7168C45.9716 19.7168 46.3599 19.3284 46.3599 18.8494C46.3599 18.3704 45.9716 17.9821 45.4926 17.9821C45.0136 17.9821 44.6253 18.3704 44.6253 18.8494C44.6253 19.3284 45.0136 19.7168 45.4926 19.7168Z" fill="#6F41DD"/>
</svg>
