<svg width="60" height="60" viewBox="0 0 60 60" fill="none" xmlns="http://www.w3.org/2000/svg">
<path d="M28.818 58.818C12.9681 58.818 0 45.8499 0 30C0 14.1501 12.9681 1.18198 28.818 1.18198C44.6679 1.18198 57.636 14.1501 57.636 30C57.636 45.8499 44.9081 58.818 28.818 58.818ZM36.743 34.5628C36.743 30.2401 34.1013 29.0394 29.2983 28.3189C25.6961 27.8386 24.9756 26.878 24.9756 25.197C24.9756 23.5159 26.1764 22.3152 28.5779 22.3152C30.7392 22.3152 31.94 23.0356 32.4203 24.7167C32.4203 25.197 32.9006 25.4371 33.3809 25.4371H35.3021C35.7824 25.4371 36.2627 24.9568 36.0225 24.4765C35.5422 21.8349 33.621 20.1538 30.7392 19.6735V16.7917C30.7392 16.3114 30.2589 15.8311 29.7786 15.8311H27.8574C27.3771 15.8311 26.8968 16.3114 26.8968 16.7917V19.6735C23.2946 20.1538 21.1332 22.5553 21.1332 25.6773C21.1332 29.5197 23.5347 31.2007 28.5779 31.9212C31.94 32.4015 32.9006 33.1219 32.9006 35.0431C32.9006 36.9643 31.2195 38.1651 28.818 38.1651C25.6961 38.1651 24.7355 36.7242 24.2552 35.0431C24.2552 34.5628 23.7749 34.3227 23.2946 34.3227H21.6135C21.1332 34.3227 20.6529 34.803 20.8931 35.2833C21.3734 38.1651 23.2946 40.5666 27.3771 41.0469V43.9287C27.3771 44.409 27.8574 44.8893 28.3377 44.8893H30.2589C30.7392 44.8893 31.2195 44.409 31.2195 43.9287V41.0469C34.3415 40.3264 36.743 37.6848 36.743 34.5628ZM22.8143 47.2908C15.8499 44.6491 11.0469 38.1651 11.0469 30.4803C11.0469 22.7955 16.0901 16.0713 22.8143 13.6698C23.2946 13.1895 23.5347 12.7092 23.5347 12.2289V10.5478C23.5347 9.82738 23.0544 9.58723 22.334 9.58723C13.6886 12.469 7.2045 20.6341 7.2045 30.2401C7.2045 39.8461 13.4484 48.0112 22.334 50.893C23.0544 51.1332 23.5347 50.6529 23.5347 49.9324V48.2514C23.5347 48.0112 23.2946 47.2908 22.8143 47.2908ZM35.5422 9.82738C34.8218 9.58723 34.3415 10.0675 34.3415 10.788V12.469C34.3415 12.9493 34.5816 13.4296 35.0619 13.6698C42.0263 16.3114 46.8293 22.7955 46.8293 30.4803C46.8293 38.1651 41.7861 44.8893 35.0619 47.2908C34.5816 47.5309 34.3415 48.0112 34.3415 48.4915V50.1726C34.3415 50.893 34.8218 51.1332 35.5422 51.1332C44.1876 48.2514 50.6717 40.0863 50.6717 30.4803C50.6717 20.8743 44.1876 12.469 35.5422 9.82738Z" fill="#2775CA"/>
</svg>
