<svg width="61" height="61" viewBox="0 0 61 61" fill="none" xmlns="http://www.w3.org/2000/svg">
<g clip-path="url(#clip0)">
<circle cx="30.4846" cy="30.281" r="30" fill="white"/>
<path fill-rule="evenodd" clip-rule="evenodd" d="M26.2632 16.681V19.081H23.4132H20.5632V20.581V22.081H21.6963C22.3197 22.081 23.1297 22.2913 23.4963 22.5481C24.1533 23.008 24.1632 23.1208 24.1632 30.0376C24.1632 37.9048 24.2286 37.681 21.933 37.681C21.1155 37.681 20.8623 37.8049 20.8599 38.206C20.8581 38.4949 20.7729 39.2374 20.6706 39.856L20.4846 40.981H23.3739H26.2632V43.381V45.781H27.7632H29.2632V43.363V40.9447L30.3882 41.038L31.5132 41.131L31.6008 43.456L31.6884 45.781H33.0258H34.3632V43.4347V41.0887L36.6882 40.729C41.0076 40.0609 43.0632 37.9732 43.0632 34.2541C43.0632 31.8694 42.3744 30.5527 40.638 29.6179L39.3132 28.9051L40.2702 27.8908C41.5254 26.5606 41.8404 24.6934 41.1255 22.8217C40.3776 20.863 38.6205 19.7455 35.4882 19.2367L34.3632 19.0537V16.6675V14.281H33.0258H31.6884L31.6008 16.606L31.5132 18.931L30.3882 19.024L29.2632 19.1173V16.699V14.281H27.7632H26.2632V16.681ZM34.6971 23.1712C35.9952 23.9293 36.4542 25.342 35.751 26.4154C35.0328 27.5116 33.8667 28.0048 31.425 28.2454L29.2632 28.4584V25.3804V22.3021L31.4796 22.4443C32.9187 22.5367 34.047 22.7917 34.6971 23.1712ZM34.5132 31.4107C36.1734 31.8619 37.3632 33.046 37.3632 34.2466C37.3632 36.3001 35.6292 37.2862 31.4637 37.6012L29.2632 37.7677V34.4242V31.081L31.2882 31.0828C32.4021 31.0837 33.8532 31.2313 34.5132 31.4107Z" fill="#EF9242"/>
<path fill-rule="evenodd" clip-rule="evenodd" d="M24.6637 0.648325C20.5207 1.50693 16.3399 3.32253 12.9238 5.74713C10.7068 7.32063 7.0141 11.1579 5.4706 13.4925C0.0918989 21.6276 -1.0106 32.0019 2.5315 41.1528C5.3125 48.3369 11.6656 54.8841 18.6967 57.8112C25.8499 60.789 33.8842 60.9606 41.0002 58.2879C47.8633 55.71 54.0292 50.217 57.2842 43.7814C59.6257 39.1518 60.2998 36.1239 60.3082 30.2001C60.3145 25.947 60.2176 24.891 59.6212 22.7001C58.8169 19.7445 57.1243 15.984 55.477 13.4925C53.9353 11.1609 50.2468 7.32663 48.007 5.72763C45.5359 3.96333 41.0299 1.83782 38.1238 1.06562C35.0026 0.236425 27.739 0.0111253 24.6637 0.648325ZM37.2238 3.49203C39.8593 4.16643 43.7857 5.93433 46.0015 7.44423C48.073 8.85573 51.3418 12.0726 52.8637 14.1969C56.6833 19.53 58.5712 26.7741 57.7981 33.1314C56.7886 41.433 52.5277 48.4467 45.7294 52.9965C41.0614 56.1207 36.2131 57.573 30.4738 57.5664C24.9508 57.5601 20.1859 56.1969 15.7684 53.3589C8.6392 48.7788 4.1836 41.6367 3.1495 33.1314C2.3764 26.7741 4.2643 19.53 8.0839 14.1969C9.5878 12.0972 12.8728 8.85543 14.8738 7.49613C18.1465 5.27313 22.5898 3.50943 26.4238 2.91183C29.101 2.49453 34.4482 2.78193 37.2238 3.49203ZM26.2231 4.68693C23.7253 5.14443 21.4108 5.92503 19.0936 7.09173C16.75 8.27163 13.0738 10.8093 13.0738 11.2473C13.0738 11.5386 14.3683 12.8001 14.6674 12.8001C14.7799 12.8001 15.6982 12.192 16.7077 11.4489C20.8201 8.42132 25.2196 6.99933 30.4738 6.99933C35.728 6.99933 40.1275 8.42132 44.2399 11.4489C45.2494 12.192 46.1866 12.8001 46.3222 12.8001C46.5991 12.8001 47.8738 11.5113 47.8738 11.2311C47.8738 10.8 43.9192 8.11563 41.7238 7.05663C37.9399 5.23173 35.653 4.67673 31.3738 4.54533C29.3113 4.48203 26.9935 4.54563 26.2231 4.68693ZM9.9154 14.6751C8.0716 17.1276 6.6667 19.9566 5.6752 23.2137C4.963 25.5528 4.8724 26.3409 4.8724 30.2001C4.8724 34.0614 4.9627 34.8468 5.6767 37.1922C6.7963 40.8693 8.2978 43.6653 10.9432 46.9986L11.5375 47.7474L12.4309 46.8912L13.3246 46.035L11.9551 44.1924C8.8312 39.99 7.2718 35.2515 7.3009 30.0501C7.3309 24.7503 8.8048 20.3268 11.9161 16.2009L13.3105 14.3517L12.5008 13.5759C12.0553 13.1493 11.6086 12.8001 11.5078 12.8001C11.407 12.8001 10.6903 13.6437 9.9154 14.6751ZM48.4282 13.5822L47.6461 14.364L49.0891 16.2702C52.1524 20.3175 53.6095 24.7392 53.6302 30.0501C53.6509 35.2956 52.2883 39.5712 49.2307 43.8558C48.4846 44.9019 47.8738 45.8787 47.8738 46.0266C47.8738 46.5213 49.3729 47.7225 49.6264 47.4312C52.1821 44.4972 54.1285 40.9755 55.2541 37.2501C55.9684 34.8864 56.0722 34.0269 56.0875 30.3501C56.1085 25.4097 55.6732 23.3532 53.7382 19.2501C52.5703 16.7733 49.9081 12.8001 49.4167 12.8001C49.303 12.8001 48.8584 13.152 48.4282 13.5822ZM13.7761 48.2499L12.9265 49.1364L13.6753 49.7391C17.4442 52.7724 21.7537 54.7797 26.1382 55.5441C29.4364 56.1195 31.5112 56.1195 34.8094 55.5441C39.1939 54.7797 43.5034 52.7724 47.2723 49.7391L48.0211 49.1364L47.1649 48.243L46.3087 47.3493L44.4661 48.7068C40.0453 51.9639 35.8732 53.3247 30.3238 53.3193C25.3255 53.3145 20.9215 51.8805 16.7812 48.9102L14.6254 47.3634L13.7761 48.2499Z" fill="black"/>
</g>
<defs>
<clipPath id="clip0">
<rect width="60" height="60" fill="white" transform="translate(0.484619 0.281006)"/>
</clipPath>
</defs>
</svg>
